<mxfile host="app.diagrams.net" modified="2023-03-27T12:28:36.329Z" agent="Mozilla/5.0 (Windows NT 6.1; Win64; x64) AppleWebKit/537.36 (KHTML, like Gecko) Chrome/108.0.0.0 YaBrowser/23.1.5.708 Yowser/2.5 Safari/537.36" etag="KBVYhHAwjBJmh56STsap" version="21.1.1" type="device">
  <diagram name="Страница 1" id="LG3OhORqMKGblikTHLN8">
    <mxGraphModel dx="742" dy="1888" grid="1" gridSize="10" guides="1" tooltips="1" connect="1" arrows="1" fold="1" page="1" pageScale="1" pageWidth="827" pageHeight="1169" math="0" shadow="0">
      <root>
        <mxCell id="0" />
        <mxCell id="1" parent="0" />
        <mxCell id="bpuN4qRB9xjqteAmPjAy-14" style="edgeStyle=orthogonalEdgeStyle;rounded=0;orthogonalLoop=1;jettySize=auto;html=1;exitX=0.5;exitY=1;exitDx=0;exitDy=0;entryX=0.5;entryY=0;entryDx=0;entryDy=0;" edge="1" parent="1" source="bpuN4qRB9xjqteAmPjAy-2" target="bpuN4qRB9xjqteAmPjAy-3">
          <mxGeometry relative="1" as="geometry" />
        </mxCell>
        <mxCell id="bpuN4qRB9xjqteAmPjAy-2" value="&lt;font style=&quot;font-size: 18px;&quot;&gt;Старт метода&lt;/font&gt;" style="rounded=1;whiteSpace=wrap;html=1;arcSize=50;" vertex="1" parent="1">
          <mxGeometry x="320" y="20" width="110" height="60" as="geometry" />
        </mxCell>
        <mxCell id="bpuN4qRB9xjqteAmPjAy-13" style="edgeStyle=orthogonalEdgeStyle;rounded=0;orthogonalLoop=1;jettySize=auto;html=1;exitX=0.5;exitY=1;exitDx=0;exitDy=0;entryX=0.5;entryY=0;entryDx=0;entryDy=0;" edge="1" parent="1" source="bpuN4qRB9xjqteAmPjAy-3" target="bpuN4qRB9xjqteAmPjAy-4">
          <mxGeometry relative="1" as="geometry" />
        </mxCell>
        <mxCell id="bpuN4qRB9xjqteAmPjAy-3" value="&lt;br&gt;array[] =&amp;nbsp; array.Length&lt;br&gt;count = 0" style="shape=parallelogram;perimeter=parallelogramPerimeter;whiteSpace=wrap;html=1;fixedSize=1;" vertex="1" parent="1">
          <mxGeometry x="262.5" y="120" width="225" height="60" as="geometry" />
        </mxCell>
        <mxCell id="bpuN4qRB9xjqteAmPjAy-17" style="edgeStyle=orthogonalEdgeStyle;rounded=0;orthogonalLoop=1;jettySize=auto;html=1;exitX=0.5;exitY=1;exitDx=0;exitDy=0;entryX=0.5;entryY=0;entryDx=0;entryDy=0;" edge="1" parent="1" source="bpuN4qRB9xjqteAmPjAy-4" target="bpuN4qRB9xjqteAmPjAy-5">
          <mxGeometry relative="1" as="geometry" />
        </mxCell>
        <mxCell id="bpuN4qRB9xjqteAmPjAy-23" style="edgeStyle=orthogonalEdgeStyle;rounded=0;orthogonalLoop=1;jettySize=auto;html=1;exitX=1;exitY=0.5;exitDx=0;exitDy=0;entryX=0.5;entryY=0;entryDx=0;entryDy=0;" edge="1" parent="1" source="bpuN4qRB9xjqteAmPjAy-4" target="bpuN4qRB9xjqteAmPjAy-24">
          <mxGeometry relative="1" as="geometry">
            <mxPoint x="480" y="340" as="targetPoint" />
            <Array as="points">
              <mxPoint x="520" y="260" />
              <mxPoint x="520" y="680" />
              <mxPoint x="378" y="680" />
            </Array>
          </mxGeometry>
        </mxCell>
        <mxCell id="bpuN4qRB9xjqteAmPjAy-4" value="i = 0 , j = 0&lt;br&gt;for(i &amp;lt; array.Length)&lt;br&gt;i++" style="rhombus;whiteSpace=wrap;html=1;" vertex="1" parent="1">
          <mxGeometry x="292.5" y="200" width="165" height="120" as="geometry" />
        </mxCell>
        <mxCell id="bpuN4qRB9xjqteAmPjAy-10" style="edgeStyle=orthogonalEdgeStyle;rounded=0;orthogonalLoop=1;jettySize=auto;html=1;exitX=0;exitY=0.5;exitDx=0;exitDy=0;entryX=0;entryY=0.5;entryDx=0;entryDy=0;" edge="1" parent="1" source="bpuN4qRB9xjqteAmPjAy-5" target="bpuN4qRB9xjqteAmPjAy-4">
          <mxGeometry relative="1" as="geometry">
            <Array as="points">
              <mxPoint x="200" y="420" />
              <mxPoint x="200" y="260" />
            </Array>
          </mxGeometry>
        </mxCell>
        <mxCell id="bpuN4qRB9xjqteAmPjAy-11" value="NO" style="edgeLabel;html=1;align=center;verticalAlign=middle;resizable=0;points=[];" vertex="1" connectable="0" parent="bpuN4qRB9xjqteAmPjAy-10">
          <mxGeometry x="-0.0901" y="1" relative="1" as="geometry">
            <mxPoint x="41" y="47" as="offset" />
          </mxGeometry>
        </mxCell>
        <mxCell id="bpuN4qRB9xjqteAmPjAy-21" value="" style="edgeStyle=orthogonalEdgeStyle;rounded=0;orthogonalLoop=1;jettySize=auto;html=1;" edge="1" parent="1" source="bpuN4qRB9xjqteAmPjAy-5" target="bpuN4qRB9xjqteAmPjAy-6">
          <mxGeometry relative="1" as="geometry" />
        </mxCell>
        <mxCell id="bpuN4qRB9xjqteAmPjAy-22" value="YES" style="edgeLabel;html=1;align=center;verticalAlign=middle;resizable=0;points=[];" vertex="1" connectable="0" parent="bpuN4qRB9xjqteAmPjAy-21">
          <mxGeometry x="-0.2421" y="-2" relative="1" as="geometry">
            <mxPoint as="offset" />
          </mxGeometry>
        </mxCell>
        <mxCell id="bpuN4qRB9xjqteAmPjAy-5" value="array[i].Length &amp;lt; 4" style="rhombus;whiteSpace=wrap;html=1;" vertex="1" parent="1">
          <mxGeometry x="307.5" y="350" width="140" height="140" as="geometry" />
        </mxCell>
        <mxCell id="bpuN4qRB9xjqteAmPjAy-28" style="edgeStyle=orthogonalEdgeStyle;rounded=0;orthogonalLoop=1;jettySize=auto;html=1;exitX=0;exitY=0.5;exitDx=0;exitDy=0;" edge="1" parent="1" source="bpuN4qRB9xjqteAmPjAy-6">
          <mxGeometry relative="1" as="geometry">
            <mxPoint x="200" y="420" as="targetPoint" />
          </mxGeometry>
        </mxCell>
        <mxCell id="bpuN4qRB9xjqteAmPjAy-6" value="secondArray[j] = array[i]&lt;br&gt;j++&lt;br&gt;count++" style="rounded=0;whiteSpace=wrap;html=1;" vertex="1" parent="1">
          <mxGeometry x="302.5" y="585" width="150" height="60" as="geometry" />
        </mxCell>
        <mxCell id="bpuN4qRB9xjqteAmPjAy-15" value="&lt;font style=&quot;font-size: 18px;&quot;&gt;Метод Array3Simbols&lt;/font&gt;" style="text;html=1;strokeColor=none;fillColor=none;align=center;verticalAlign=middle;whiteSpace=wrap;rounded=0;" vertex="1" parent="1">
          <mxGeometry x="280" y="-40" width="195" height="30" as="geometry" />
        </mxCell>
        <mxCell id="bpuN4qRB9xjqteAmPjAy-27" style="edgeStyle=orthogonalEdgeStyle;rounded=0;orthogonalLoop=1;jettySize=auto;html=1;exitX=0.5;exitY=1;exitDx=0;exitDy=0;entryX=0.5;entryY=0;entryDx=0;entryDy=0;" edge="1" parent="1" source="bpuN4qRB9xjqteAmPjAy-24" target="bpuN4qRB9xjqteAmPjAy-26">
          <mxGeometry relative="1" as="geometry" />
        </mxCell>
        <mxCell id="bpuN4qRB9xjqteAmPjAy-24" value="Array.Resize(ref secondArray, count)" style="rounded=0;whiteSpace=wrap;html=1;" vertex="1" parent="1">
          <mxGeometry x="315" y="720" width="125" height="60" as="geometry" />
        </mxCell>
        <mxCell id="bpuN4qRB9xjqteAmPjAy-30" style="edgeStyle=orthogonalEdgeStyle;rounded=0;orthogonalLoop=1;jettySize=auto;html=1;exitX=0.5;exitY=1;exitDx=0;exitDy=0;entryX=0.5;entryY=0;entryDx=0;entryDy=0;" edge="1" parent="1" source="bpuN4qRB9xjqteAmPjAy-26" target="bpuN4qRB9xjqteAmPjAy-29">
          <mxGeometry relative="1" as="geometry" />
        </mxCell>
        <mxCell id="bpuN4qRB9xjqteAmPjAy-26" value="return secondArray" style="shape=parallelogram;perimeter=parallelogramPerimeter;whiteSpace=wrap;html=1;fixedSize=1;" vertex="1" parent="1">
          <mxGeometry x="305" y="830" width="145" height="60" as="geometry" />
        </mxCell>
        <mxCell id="bpuN4qRB9xjqteAmPjAy-29" value="&lt;font style=&quot;font-size: 18px;&quot;&gt;Конец метода&lt;/font&gt;" style="rounded=1;whiteSpace=wrap;html=1;arcSize=50;" vertex="1" parent="1">
          <mxGeometry x="322.5" y="920" width="110" height="60" as="geometry" />
        </mxCell>
        <mxCell id="bpuN4qRB9xjqteAmPjAy-31" value="YES" style="edgeLabel;html=1;align=center;verticalAlign=middle;resizable=0;points=[];" vertex="1" connectable="0" parent="1">
          <mxGeometry x="385.5" y="536" as="geometry">
            <mxPoint x="-14" y="-205" as="offset" />
          </mxGeometry>
        </mxCell>
        <mxCell id="bpuN4qRB9xjqteAmPjAy-32" value="NO" style="edgeLabel;html=1;align=center;verticalAlign=middle;resizable=0;points=[];" vertex="1" connectable="0" parent="1">
          <mxGeometry x="250" y="420.5" as="geometry">
            <mxPoint x="232" y="-159" as="offset" />
          </mxGeometry>
        </mxCell>
      </root>
    </mxGraphModel>
  </diagram>
</mxfile>
